<svg t="1721838724569" class="icon" viewBox="0 0 1024 1024" version="1.1" xmlns="http://www.w3.org/2000/svg" p-id="19571" width="200" height="200"><path d="M554.851216 298.411806h-85.225565a21.365891 21.365891 0 0 1 0-42.732782h85.225565a21.365891 21.365891 0 0 1 0 42.732782z" fill="#F6BB42" p-id="19572"></path><path d="M810.52991 724.661629a511.595387 511.595387 0 0 1-478.531556-691.596468 511.357388 511.357388 0 1 0 658.771636 659.248633 509.447398 509.447398 0 0 1-180.24008 32.347835z" fill="#FFCE54" p-id="19573"></path><path d="M554.851216 980.339323a511.357388 511.357388 0 0 1-381.965049-850.828654 511.237389 511.237389 0 1 0 721.436315 721.796313 509.327399 509.327399 0 0 1-339.471266 129.032341z" fill="#F6BB42" p-id="19574"></path><path d="M767.916128 277.283914a21.365891 21.365891 0 1 1-21.365891-21.365891 21.365891 21.365891 0 0 1 21.365891 21.365891z" fill="#4A89DC" p-id="19575"></path><path d="M661.442672 490.348826a21.365891 21.365891 0 1 1-21.364891-21.365891 21.365891 21.365891 0 0 1 21.365891 21.365891z" fill="#48CFAD" p-id="19576"></path><path d="M1023.594822 234.313133a21.365891 21.365891 0 1 1-21.365891-21.246891 21.365891 21.365891 0 0 1 21.365891 21.246891z" fill="#ED5564" p-id="19577"></path><path d="M640.077781 21.247221A21.365891 21.365891 0 1 1 618.830889 0.00033a21.365891 21.365891 0 0 1 21.246892 21.246891z" fill="#AC92EB" p-id="19578"></path><path d="M512.238434 192.057349a21.365891 21.365891 0 0 0-21.246892 21.366891v127.719348a21.365891 21.365891 0 1 0 42.612783 0v-127.719348a21.365891 21.365891 0 0 0-21.365891-21.366891z" fill="#FFCE54" p-id="19579"></path><path d="M874.389584 426.370152a21.365891 21.365891 0 0 0-21.246891 21.365891v127.839347a21.365891 21.365891 0 0 0 42.612782 0v-127.839347a21.365891 21.365891 0 0 0-21.365891-21.365891z" fill="#F6BB42" p-id="19580"></path><path d="M917.002367 532.962608h-85.225565a21.365891 21.365891 0 0 1 0-42.613782H917.001367a21.365891 21.365891 0 1 1 0 42.613782z" fill="#FFCE54" p-id="19581"></path></svg>